<?xml version="1.0" encoding="utf-8"?>
<!-- Generator: Adobe Illustrator 19.1.0, SVG Export Plug-In . SVG Version: 6.00 Build 0)  -->
<svg version="1.1" id="Layer_3" xmlns="http://www.w3.org/2000/svg" xmlns:xlink="http://www.w3.org/1999/xlink" x="0px" y="0px"
	 viewBox="0 0 23.5 23.6" style="enable-background:new 0 0 23.5 23.6;" xml:space="preserve">
<style type="text/css">
	.st0{fill:#1B1715;}
</style>
<g>
	<g>
		<path class="st0" d="M11.8,23.6c-3.1,0-6.1-1.2-8.3-3.4C1.2,17.9,0,14.9,0,11.8s1.2-6.1,3.4-8.3C5.7,1.2,8.6,0,11.8,0
			c3.1,0,6.1,1.2,8.3,3.4c4.6,4.6,4.6,12.1,0,16.7C17.9,22.3,14.9,23.6,11.8,23.6L11.8,23.6z M11.8,2C9.2,2,6.7,3,4.9,4.9
			C3,6.7,2,9.2,2,11.8s1,5.1,2.9,6.9c1.8,1.8,4.3,2.9,6.9,2.9c2.6,0,5.1-1,6.9-2.9c3.8-3.8,3.8-10,0-13.8C16.8,3,14.4,2,11.8,2
			L11.8,2z"/>
	</g>
	<g>
		<path class="st0" d="M11.8,23.6L11.8,23.6c-3.1,0-6.1-1.2-8.3-3.4c-0.3-0.3-0.6-0.6-0.8-0.9c-0.3-0.3-0.3-0.8-0.1-1.1
			c0.3-0.5,0.6-0.9,1.1-1.1c1.6-0.7,3.2-1.3,4.9-1.5C8,15,7.7,14.5,7.7,14c0-0.1,0-0.3,0-0.4C7.2,13.4,7,13,6.9,12.5l-0.2-1.9
			c0-0.5,0.1-0.9,0.5-1.2L7.1,8.9C7,8.3,6.9,6.7,8.1,5.5c0.8-0.8,2.2-1.3,3.6-1.3c1.5,0,2.8,0.5,3.7,1.3c1.2,1.1,1.1,2.7,1,3.4
			l-0.1,0.5c0.3,0.3,0.5,0.7,0.4,1.2l-0.2,1.9c0,0.5-0.3,0.9-0.7,1.1l0,0.4c0,0.5-0.3,1-0.8,1.4c1.7,0.3,3.3,0.8,4.8,1.5
			c0.5,0.2,0.8,0.6,1.1,1.1c0.2,0.4,0.2,0.8-0.1,1.1c-0.3,0.3-0.5,0.6-0.8,0.9C17.9,22.3,14.9,23.6,11.8,23.6L11.8,23.6z M4.8,18.6
			C4.8,18.7,4.8,18.7,4.8,18.6c1.9,1.9,4.3,2.9,7,2.9c2.6,0,5.1-1,6.9-2.9c0,0,0,0,0,0c-1.5-0.7-3.2-1.1-4.9-1.4
			c-0.3,0-0.5-0.2-0.7-0.4c-0.2-0.2-0.2-0.5-0.2-0.8l0.2-1.4c0-0.3,0.2-0.5,0.4-0.7c0.2-0.1,0.3-0.3,0.3-0.3l0.1-1.2
			c0-0.4,0.3-0.7,0.7-0.8c0,0,0,0,0,0l0.1-0.7c0,0,0,0-0.1,0c-0.3-0.2-0.5-0.6-0.4-0.9l0.1-1.3c0.1-0.6,0.1-1.3-0.4-1.7
			c-0.5-0.5-1.4-0.8-2.3-0.8C10.8,6.2,10,6.5,9.5,7C9,7.4,9,8.1,9.1,8.7L9.2,10c0,0.4-0.1,0.7-0.4,0.9c0,0,0,0,0,0l0.1,0.7
			c0,0,0,0,0,0c0.4,0.1,0.6,0.4,0.7,0.8c0.1,0.4,0.1,0.9,0.1,1.3c0,0,0.1,0.2,0.3,0.3c0.2,0.2,0.4,0.4,0.5,0.7l0.2,1.4
			c0,0.3,0,0.5-0.2,0.8c-0.2,0.2-0.4,0.4-0.7,0.4C8,17.5,6.4,18,4.8,18.6L4.8,18.6z"/>
	</g>
</g>
</svg>
