<?xml version="1.0" encoding="utf-8"?>
<!-- Generator: Adobe Illustrator 19.1.0, SVG Export Plug-In . SVG Version: 6.00 Build 0)  -->
<svg version="1.1" id="Layer_1" xmlns="http://www.w3.org/2000/svg" xmlns:xlink="http://www.w3.org/1999/xlink" x="0px" y="0px"
	 viewBox="0 56.7 234.5 350.2" style="enable-background:new 0 56.7 234.5 350.2;" xml:space="preserve">
<style type="text/css">
	.st0{fill:#42B5F4;}
</style>
<path id="hand" class="st0" d="M69.5,406.9H207V400c0-8.4,5.9-27.4,11.7-45.7c7.8-25,15.8-50.8,15.8-67.7v-49.4l-0.4-1.2
	c-8.2-21.8-28-30.6-43.9-31.8c-11.6-15.7-30.9-17.2-41.8-17.3c-7.7-8.1-20.3-12.6-37.6-13.6v-55.2c0-15.2-12.3-27.5-27.5-27.5
	c-15.2,0-27.5,12.3-27.5,27.5v106.5V242c-8.5-7.8-20.4-16.5-32-17.5c-6.5-0.6-12.4,1.3-17.2,5.4c-15.9,13.7-0.5,37.2,19.1,67.1
	c19.5,29.8,43.8,67,43.8,103.1V406.9z M37.2,289.4c-13.9-21.3-28.4-43.3-21.6-49.1c2-1.7,4.2-2.4,7-2.1c11.5,1,26.6,15.9,33.2,23.5
	v14.7c0,3.8,3,6.8,6.8,6.8h0.2c3.8,0,6.8-3,6.8-6.8v-51.6V118.2c0-7.6,6.2-13.7,13.8-13.7c7.6,0,13.7,6.2,13.7,13.7v65.3v3.4v48.2
	c0,3.8,3,6.8,6.8,6.8c3.9,0,7-3,7-6.8v-48c15.7,1,23.6,5.1,27.5,9.2v38.8c0,3.8,3,6.8,6.8,6.8c3.9,0,6.9-3,6.9-6.8v-34.3
	c9.1,0.5,20.7,2.6,27.5,12.3v35.8c0,3.8,3,6.8,6.8,6.8c3.9,0,6.9-3,6.9-6.8v-30.4c8.3,1.5,21.3,6.2,27.5,21.3v46.8
	c0,14.8-8.1,40.7-15.2,63.6c-5.3,17.1-10.1,32.2-11.7,43H83C80.4,355.4,56.5,319,37.2,289.4z M38.1,165.5c-12-12-18.7-28-18.7-45.1
	c0-35.1,28.6-63.7,63.7-63.7c35.1,0,63.7,28.6,63.7,63.7c0,17-6.6,33-18.7,45.1c-1.3,1.3-3.1,2-4.8,2c-1.7,0-3.5-0.7-4.8-2
	c-2.7-2.7-2.7-7,0-9.6c9.5-9.5,14.7-22.1,14.7-35.4c0-27.6-22.5-50.1-50.1-50.1C55.5,70.3,33,92.8,33,120.4c0,13.4,5.2,26,14.7,35.4
	c2.7,2.7,2.7,7,0,9.6C45,168.1,40.7,168.1,38.1,165.5z"/>
</svg>
