<?xml version="1.0" encoding="utf-8"?>
<!-- Generator: Adobe Illustrator 19.1.0, SVG Export Plug-In . SVG Version: 6.00 Build 0)  -->
<svg version="1.1" xmlns="http://www.w3.org/2000/svg" xmlns:xlink="http://www.w3.org/1999/xlink" x="0px" y="0px"
	 viewBox="220.9 -115.2 400 563" style="enable-background:new 220.9 -115.2 400 563;" xml:space="preserve">
<g id="Layer_1">
	<g transform="translate(0,-952.36218)">
		<g>
			<path d="M417.4,981.5c-69.3,27.7-120.8,48.4-190.5,76.2c-3.5,1.4-6,5.1-6,8.9v238.1c-0.1,4.4,3.2,8.6,7.4,9.5l186.9,84.1
				c3.2,2.4,7.9,2.4,11.2,0.1l186.8-84.2c4.4-0.8,7.8-5.1,7.7-9.5v-238.1c0.1-4.2-3-8.3-7.1-9.4l-188-75.2c-1.4-0.9-3.1-1.3-4.8-1.3
				C419.8,980.8,418.5,981,417.4,981.5z M353.1,1027.8l67.9-27.1l164.7,65.9l-164.7,65.8l-164.7-65.8 M585.7,1066.7l-164.7,65.8l0,0
				L585.7,1066.7L585.7,1066.7z M601.9,1298.7l-171.4,76.9v-226.4l171.4-68.6V1298.7z M411.4,1149.3v226.4L240,1298.7v-218"/>
		</g>
	</g>
</g>
<g id="Layer_2">
	<g>
		<path d="M287.5-60.3l-58.3,29.9v-8.7l49.5-24.6V-64l-49.5-24.6v-8.7l58.3,29.9V-60.3z"/>
		<path d="M331.6-74.8c0-6.3-0.1-11.4-0.5-16.5h9.7l0.5,9.8h0.4c3.4-5.8,9-11.2,19.1-11.2c8.3,0,14.6,5,17.2,12.2h0.3
			c1.9-3.4,4.3-6,6.8-7.9c3.6-2.8,7.7-4.3,13.4-4.3c8,0,20,5.3,20,26.4v35.8h-10.8v-34.4c0-11.7-4.3-18.7-13.2-18.7
			c-6.3,0-11.2,4.6-13.1,10c-0.5,1.5-0.9,3.5-0.9,5.5v37.6h-10.8v-36.4c0-9.7-4.3-16.7-12.7-16.7c-6.9,0-11.9,5.5-13.7,11.1
			c-0.6,1.6-0.9,3.5-0.9,5.4v36.7h-10.8V-74.8z"/>
		<path d="M448.6-108.3c0.1,3.8-2.6,6.8-7,6.8c-3.9,0-6.7-3-6.7-6.8c0-3.9,2.9-6.9,6.9-6.9C446-115.2,448.6-112.2,448.6-108.3z
			 M436.3-30.4v-60.8h11.1v60.8H436.3z"/>
		<path d="M465.7-74.8c0-6.3-0.1-11.4-0.5-16.5h9.8l0.6,10h0.3c3-5.8,10-11.4,20.1-11.4c8.4,0,21.5,5,21.5,25.9v36.3h-11.1v-35
			c0-9.8-3.6-18-14.1-18c-7.3,0-12.9,5.1-14.8,11.3c-0.5,1.4-0.8,3.3-0.8,5.1v36.5h-11.1V-74.8z"/>
		<path d="M561.2-67.2l58.3-30v8.7L570.3-64v0.3l49.1,24.6v8.7l-58.3-30V-67.2z"/>
	</g>
</g>
</svg>
