<?xml version="1.0" encoding="utf-8"?>
<!-- Generator: Adobe Illustrator 19.1.0, SVG Export Plug-In . SVG Version: 6.00 Build 0)  -->
<svg version="1.1" id="Layer_1" xmlns="http://www.w3.org/2000/svg" xmlns:xlink="http://www.w3.org/1999/xlink" x="0px" y="0px"
	 viewBox="0 0 67.9 67.9" style="enable-background:new 0 0 67.9 67.9;" xml:space="preserve">
<path d="M67.3,16.4c-1.4-1.4-2.7-2.7-4.1-4.1c-0.5-0.5-1-0.7-1.7-0.7c-0.8,0-1.6,0-2.3-0.2C47.5,8.2,35.7,4.8,24,1.4
	c-1.5-0.4-3.1-0.9-4.6-1.4c-0.4,0-0.9,0-1.3,0c-1.3,1-2.6,2-3.9,3.1C11,5.8,7.8,8.6,4.6,11.3c-0.2,0.2-0.6,0.3-0.9,0.3
	c-0.7,0.1-1.4,0-2.1,0c-0.7,0-1.2,0.2-1.6,0.8c0,3.4,0,6.8,0,10.2c0.5,0.5,1,0.7,1.8,0.7c2,0,4,0,6,0c1.1,0,1.5-0.4,1.5-1.5
	c0-1,0-2.1,0-3.1c1.2,0,2.4,0,3.6,0c0,14.1,0,28.1,0,42.3c-0.3,0-0.7,0-1,0c-0.8,0-1.2,0.4-1.3,1.1c0,1.5-0.1,3.1,0,4.6
	c0,0.4,0.4,0.7,0.7,1.1c5,0,9.9,0,14.9,0c0.2-0.4,0.7-0.7,0.7-1.1c0.1-1.5,0.1-3.1,0-4.6c0-0.8-0.5-1.1-1.3-1.1c-0.3,0-0.7,0-1,0
	c0-10.3,0-20.4,0-30.6c0.1,0,0.1-0.1,0.2-0.1c1.2,0,2.4,0,3.6,0c1.8,0,3.2-1.1,3.6-2.9c0.6-2.7,1.1-5.4,1.6-8.1
	c0.1-0.5,0.3-0.7,0.8-0.7c7,0,14.1,0,21.1,0c0.2,0,0.5,0,0.8,0c0,1.2,0,2.2,0,3.3c0,1.5,0.6,2.7,2,3.5c0.2,0.1,0.3,0.5,0.3,0.7
	c0,2.3,0,4.6,0,7c0,0.3-0.1,0.7-0.4,1c-1.3,1.6-2.6,3.2-3.8,4.8c-0.3,0.4-0.4,0.9-0.5,1.3c0,2.9,0,5.7,0,8.6c0,1.3,0.3,1.6,1.6,1.6
	c2.8,0,5.6,0,8.4,0c1.3,0,1.6-0.3,1.6-1.6c0-2.8,0-5.6,0-8.4c0-0.6-0.2-1.1-0.6-1.6c-1.3-1.6-2.6-3.2-3.9-4.8
	c-0.1-0.2-0.3-0.4-0.3-0.6c0-2.5,0-5,0-7.4c0-0.2,0.1-0.4,0.2-0.5c1.6-0.8,2.2-2.1,2.1-3.8c0-1,0-1.9,0-3c1.1,0,2.1,0,3.1,0
	c0.6,0,1.2-0.1,1.4-0.7C68.1,17.3,67.7,16.9,67.3,16.4z M51.3,11.6c0,0,0,0.1,0,0.1c-0.2,0-0.4,0-0.6,0c-8.6,0-17.1,0-25.7,0
	c-0.6,0-0.8-0.2-0.9-0.7c-0.8-2.6-1.6-5.2-2.4-8C31.6,5.9,41.5,8.7,51.3,11.6z M16.2,9.5c0.7-2.2,1.3-4.5,2-6.7
	c0.1-0.2,0.3-0.4,0.5-0.6c0.2,0.2,0.4,0.3,0.5,0.5c0.9,2.9,1.7,5.8,2.6,8.7c0,0.1,0,0.1,0,0.2c-2.1,0-4.2,0-6.3,0
	C15.7,10.9,16,10.2,16.2,9.5z M7,21.1c-1.6,0-3.1,0-4.7,0c0-2.4,0-4.7,0-7.1c1.6,0,3.1,0,4.7,0C7,16.3,7,18.7,7,21.1z M7.6,11.7
	c2.6-2.2,5-4.3,7.4-6.4c0,0,0.1,0.1,0.1,0.1c-0.6,2-1.2,3.9-1.8,5.9c-0.1,0.2-0.3,0.4-0.4,0.4C11.2,11.7,9.5,11.7,7.6,11.7z
	 M24.6,63.3c0,0.8,0,1.6,0,2.4c-3.9,0-7.8,0-11.8,0c0-0.8,0-1.6,0-2.4C16.8,63.3,20.7,63.3,24.6,63.3z M20.2,38.9
	c0.6-1.1,1.3-2.1,2-3.3c0,2.4,0,4.7,0,7.2c-0.7-1.2-1.4-2.2-2-3.3C20.1,39.4,20.1,39.1,20.2,38.9z M18.7,37.1
	c-0.9-1.5-1.8-2.9-2.7-4.3c1.8,0,3.5,0,5.3,0C20.5,34.2,19.6,35.6,18.7,37.1z M16,30.5c0.9-1.4,1.7-2.8,2.7-4.4
	c0.9,1.5,1.8,2.9,2.7,4.4C19.6,30.5,17.8,30.5,16,30.5z M17.3,39c0.1,0.1,0,0.3,0,0.5c-0.6,1.1-1.3,2.1-2,3.3c0-2.4,0-4.8,0-7.2
	C15.9,36.8,16.6,37.9,17.3,39z M18.7,41.4c0.9,1.5,1.8,2.9,2.7,4.4c-1.8,0-3.6,0-5.4,0C16.9,44.3,17.8,42.9,18.7,41.4z M21.4,48
	c-0.9,1.5-1.7,2.9-2.7,4.4c-0.9-1.5-1.8-2.9-2.7-4.4C17.8,48,19.5,48,21.4,48z M21.4,61c-1.8,0-3.5,0-5.3,0c0.9-1.4,1.7-2.8,2.7-4.3
	C19.6,58.1,20.5,59.5,21.4,61z M21.3,56.6c-0.4-0.7-1.2-1.4-1.2-2.1c0-0.7,0.7-1.4,1.2-2.1c0.3-0.5,0.6-0.9,0.9-1.4c0,0,0.1,0,0.1,0
	c0,2.3,0,4.6,0,7.1C21.9,57.5,21.6,57.1,21.3,56.6z M22.2,27.6c-0.8-1.2-1.4-2.3-2.1-3.4c-0.1-0.1-0.1-0.4,0-0.5
	c0.7-1.1,1.3-2.2,2.1-3.5C22.2,22.8,22.2,25.1,22.2,27.6z M18.7,21.9c-0.7-1.1-1.3-2.1-1.9-3.2c1.3,0,2.6,0,3.9,0
	C20,19.8,19.4,20.7,18.7,21.9z M17.3,23.8c0.1,0.1,0,0.3,0,0.4c-0.7,1.1-1.3,2.2-2.1,3.4c0-2.5,0-4.7,0-7.2
	C15.9,21.6,16.6,22.7,17.3,23.8z M17.2,54.3c0.1,0.1,0.1,0.3,0,0.4c-0.7,1.1-1.3,2.2-2.1,3.4c0-2.5,0-4.8,0-7.3
	C15.9,52.1,16.6,53.2,17.2,54.3z M29.9,26.1c-0.4,2-0.4,2-2.5,2c-0.9,0-1.9,0-2.9,0c0-1,0-2,0-3c0-1,0-1.9,0-2.9c2.1,0,4.1,0,6.2,0
	C30.4,23.5,30.2,24.8,29.9,26.1z M31.2,19.9c-2.2,0-4.4,0-6.6,0c0-0.4,0-0.8,0-1.2c2.3,0,4.5,0,6.9,0C31.3,19.1,31.2,19.5,31.2,19.9
	z M63.3,41.5c0,2,0,4,0,6c0,0.3,0,0.6-0.5,0.6c-2.1,0-4.3,0-6.4,0c-0.1,0-0.1,0-0.2-0.1c0-2.3,0-4.7,0-7c2.3,0,4.7,0,7.1,0
	C63.3,41.2,63.3,41.3,63.3,41.5z M62.1,38.7c-1.6,0-3.1,0-4.7,0c0.8-1,1.5-1.9,2.3-2.9C60.5,36.7,61.3,37.7,62.1,38.7z M61,22.4
	c0,0.6-0.6,1.1-1.2,1.1c-0.6,0-1.1-0.5-1.2-1.1c0-0.2,0-0.3,0-0.5c0-1,0-2.1,0-3.2c0.9,0,1.6,0,2.5,0C61,19.9,61,21.1,61,22.4z
	 M9.3,16.4c0-0.8,0-1.6,0-2.5c0.2,0,0.5,0,0.7,0c17,0,34,0,51,0c0.5,0,0.8,0.1,1.1,0.5c0.6,0.7,1.3,1.3,2,2
	C45.7,16.4,27.5,16.4,9.3,16.4z"/>
</svg>
