<?xml version="1.0" encoding="utf-8"?>
<!-- Generator: Adobe Illustrator 19.1.0, SVG Export Plug-In . SVG Version: 6.00 Build 0)  -->
<svg version="1.1" id="Layer_1" xmlns="http://www.w3.org/2000/svg" xmlns:xlink="http://www.w3.org/1999/xlink" x="0px" y="0px"
	 viewBox="-93 508.9 62 51" style="enable-background:new -93 508.9 62 51;" xml:space="preserve">
<path d="M-40.1,536.1l-0.4-0.6l-0.6-0.4l-0.7-0.1l-16.2-0.1c-1,0-1.8,0.8-1.8,1.8c0,0.9,0.8,1.7,1.8,1.7h11.8l-17.7,17.3l-18-17.6
	c-0.8-0.7-1.9-0.7-2.6,0s-0.7,1.7,0.1,2.5l10,9.8l0,0l9.2,9c0.4,0.4,0.9,0.5,1.4,0.5c0.5,0,0.9-0.2,1.3-0.5l18.9-18.5v11.3
	c0,1,0.9,1.7,1.8,1.7c1,0,1.7-0.8,1.8-1.7v-15.5L-40.1,536.1z"/>
<rect x="-93" y="508.9" width="18" height="18"/>
<circle cx="-40" cy="517.9" r="9"/>
</svg>
