<?xml version="1.0" encoding="utf-8"?>
<!-- Generator: Adobe Illustrator 19.1.0, SVG Export Plug-In . SVG Version: 6.00 Build 0)  -->
<svg version="1.1" id="Layer_1" xmlns="http://www.w3.org/2000/svg" xmlns:xlink="http://www.w3.org/1999/xlink" x="0px" y="0px"
	 viewBox="197.1 10.7 455.1 456.5" style="enable-background:new 197.1 10.7 455.1 456.5;" xml:space="preserve">
<path d="M647.6,171.4c-1.9-3.3-5.7-5.7-9.5-6.2c-129.5-13.3-224.8,10.5-282.9,70c-47.6,48.1-58.6,107.6-60.5,143.8
	c-26.7-30-70-91-71-164.8c-1-60.5,26.7-118.6,82.4-172.9c18.1,15.7,60.5,59.5,69.5,131.9c1,7.1,7.6,12.9,14.8,11.4
	c7.1-1,12.4-7.6,11.4-14.8C389,65.2,315.7,14.8,312.8,12.9c-5.2-3.3-11.9-2.9-16.7,1.4c-66.7,61.9-100,129.5-99.1,201
	c1.9,117.6,95.7,201.4,100,204.8c2.4,2.4,5.7,3.3,8.6,3.3c0.5,0,0.5,0,1,0s1.4,0.5,1.9,0.5c2.9,0,5.2-1,7.6-2.4l212.4-150
	c6.2-4.3,7.6-12.4,3.3-18.6c-4.3-6.2-12.4-7.6-18.6-3.3L320.9,384.8c1-31,10-87.1,52.9-131c51-51.9,135.2-73.3,250-63.3
	c-14.8,94.8-51,164.3-108.6,205.7c-80.5,58.6-176.2,41.9-177.2,41.9c-7.1-1.4-14.3,3.3-15.7,10.5c-1.4,7.1,3.3,14.3,10.5,15.7
	c1.4,0.5,16.2,2.9,39.1,2.9c39.5,0,101.4-7.6,158.6-49.1c66.2-47.6,106.7-127.2,121.4-235.7C652.9,178.1,651,174.3,647.6,171.4z"/>
</svg>
