<?xml version="1.0" encoding="utf-8"?>
<!-- Generator: Adobe Illustrator 19.1.0, SVG Export Plug-In . SVG Version: 6.00 Build 0)  -->
<svg version="1.1" id="Слой_1" xmlns="http://www.w3.org/2000/svg" xmlns:xlink="http://www.w3.org/1999/xlink" x="0px" y="0px"
	 viewBox="0 0 547 295" style="enable-background:new 0 0 547 295;" xml:space="preserve">
<path d="M0,262.2h106.5v16.4H73.7V295H254v-16.4h-32.8v-16.4h106.5V32.8H0V262.2z M204.8,278.6h-81.9v-16.4h81.9V278.6z M16.4,49.2
	h295v196.6h-90.1H106.5H16.4V49.2z"/>
<path d="M383.1,0v295H547V0H383.1z M530.6,16.4V41H399.5V16.4H530.6z M399.5,82V57.4h131.1V82H399.5z M530.6,98.3v24.6H399.5V98.3
	H530.6z M399.5,278.6V139.3h131.1v139.3H399.5z"/>
<rect x="456.9" y="237.6" width="16.4" height="16.4"/>
<rect x="489.6" y="237.6" width="16.4" height="16.4"/>
<rect x="424.1" y="237.6" width="16.4" height="16.4"/>
<path d="M465.1,163.9c-13.6,0-24.6,11-24.6,24.6s11,24.6,24.6,24.6s24.6-11,24.6-24.6S478.6,163.9,465.1,163.9z M465.1,196.7
	c-4.5,0-8.2-3.7-8.2-8.2s3.7-8.2,8.2-8.2s8.2,3.7,8.2,8.2C473.3,193,469.6,196.7,465.1,196.7z"/>
</svg>
