<?xml version="1.0" encoding="utf-8"?>
<!-- Generator: Adobe Illustrator 19.1.0, SVG Export Plug-In . SVG Version: 6.00 Build 0)  -->
<svg version="1.1" id="Layer_3" xmlns="http://www.w3.org/2000/svg" xmlns:xlink="http://www.w3.org/1999/xlink" x="0px" y="0px"
	 viewBox="0 0 18.3 22.5" style="enable-background:new 0 0 18.3 22.5;" xml:space="preserve">
<style type="text/css">
	.st0{fill:#1B1715;}
</style>
<g>
	<g>
		<g>
			<path class="st0" d="M11.3,22c-0.3,0-0.5-0.2-0.5-0.5v-6c0-0.3,0.2-0.5,0.5-0.5h6c0.3,0,0.5,0.2,0.5,0.5c0,0.3-0.2,0.5-0.5,0.5
				h-5.5v5.5C11.8,21.8,11.6,22,11.3,22L11.3,22z"/>
		</g>
		<g>
			<path class="st0" d="M11.3,22.5H1c-0.6,0-1-0.4-1-1V1c0-0.6,0.4-1,1-1h16.3c0.6,0,1,0.4,1,1v14.5c0,0.3-0.1,0.5-0.3,0.7l-6,6
				C11.9,22.4,11.6,22.5,11.3,22.5L11.3,22.5z M2,20.5h8.9l5.4-5.4V2H2V20.5L2,20.5z"/>
		</g>
	</g>
	<g>
		<path class="st0" d="M12.4,9.9H6c-0.6,0-1-0.4-1-1s0.4-1,1-1h6.4c0.6,0,1,0.4,1,1S12.9,9.9,12.4,9.9L12.4,9.9z"/>
	</g>
	<g>
		<path class="st0" d="M9.2,13.1c-0.6,0-1-0.4-1-1V5.7c0-0.6,0.4-1,1-1c0.6,0,1,0.4,1,1v6.4C10.2,12.6,9.7,13.1,9.2,13.1L9.2,13.1z"
			/>
	</g>
</g>
</svg>
