<?xml version="1.0" encoding="utf-8"?>
<!-- Generator: Adobe Illustrator 19.1.0, SVG Export Plug-In . SVG Version: 6.00 Build 0)  -->
<svg version="1.1" id="Слой_1" xmlns="http://www.w3.org/2000/svg" xmlns:xlink="http://www.w3.org/1999/xlink" x="0px" y="0px"
	 viewBox="0 0 70.6 68.9" style="enable-background:new 0 0 70.6 68.9;" xml:space="preserve">
<g>
	<g>
		<g>
			<path d="M69,64.1H1.6v-30h67.3L69,64.1L69,64.1z M4.9,60.9h60.8V37.3H4.9V60.9z"/>
		</g>
	</g>
	<g>
		<g>
			<g>
				<polygon points="4.9,37.3 1.6,37.3 1.6,26.8 25.6,26.8 25.6,30 4.9,30 				"/>
			</g>
		</g>
		<g>
			<g>
				<polygon points="69,37.3 65.7,37.3 65.7,30 45,30 45,26.8 69,26.8 				"/>
			</g>
		</g>
	</g>
	<g>
		<g>
			<rect y="65.7" width="70.6" height="3.2"/>
		</g>
	</g>
	<g>
		<g>
			<g>
				<rect x="47.6" y="34.9" width="3.2" height="28.4"/>
			</g>
		</g>
		<g>
			<g>
				<rect x="38.3" y="34.9" width="3.2" height="28.4"/>
			</g>
		</g>
		<g>
			<g>
				<rect x="29.1" y="34.9" width="3.2" height="28.4"/>
			</g>
		</g>
		<g>
			<g>
				<rect x="19.8" y="34.9" width="3.2" height="28.4"/>
			</g>
		</g>
		<g>
			<g>
				<rect x="10.6" y="34.9" width="3.2" height="28.4"/>
			</g>
		</g>
		<g>
			<g>
				<rect x="56.8" y="35.7" width="3.2" height="28.4"/>
			</g>
		</g>
	</g>
	<g>
		<g>
			<rect x="33.7" y="0.8" width="3.2" height="18.7"/>
		</g>
	</g>
	<g>
		<g>
			<path d="M51.5,11.4H33.7V0h17.8V11.4z M36.9,8.1h11.4V3.2H36.9V8.1z"/>
		</g>
	</g>
	<g>
		<g>
			<polygon points="52.5,36.9 35.3,21.5 18.1,36.9 15.9,34.5 35.3,17.1 54.7,34.5 			"/>
		</g>
	</g>
</g>
</svg>
