<?xml version="1.0" encoding="utf-8"?>
<!-- Generator: Adobe Illustrator 19.1.0, SVG Export Plug-In . SVG Version: 6.00 Build 0)  -->
<svg version="1.1" id="Layer_3" xmlns="http://www.w3.org/2000/svg" xmlns:xlink="http://www.w3.org/1999/xlink" x="0px" y="0px"
	 viewBox="0 0 18.5 24.3" style="enable-background:new 0 0 18.5 24.3;" xml:space="preserve">
<style type="text/css">
	.st0{fill:#1B1715;}
</style>
<g>
	<g>
		<path class="st0" d="M17.5,24.3H1c-0.6,0-1-0.4-1-1V2c0-0.6,0.4-1,1-1h16.5c0.6,0,1,0.4,1,1v21.3C18.5,23.8,18.1,24.3,17.5,24.3
			L17.5,24.3z M2,22.3h14.5V3H2V22.3L2,22.3z"/>
	</g>
	<g>
		<path class="st0" d="M12.6,4.3H5.9c-1.2,0-2.1-1-2.1-2.1C3.8,1,4.7,0,5.9,0h6.8c1.2,0,2.1,1,2.1,2.1C14.8,3.3,13.8,4.3,12.6,4.3
			L12.6,4.3z M5.9,2C5.8,2,5.8,2.1,5.8,2.1c0,0.1,0.1,0.1,0.1,0.1h6.8c0.1,0,0.1-0.1,0.1-0.1c0-0.1-0.1-0.1-0.1-0.1H5.9L5.9,2z"/>
	</g>
	<g>
		<path class="st0" d="M5.8,7.6H4.7c-0.3,0-0.5,0.2-0.5,0.5v1.2c0,0.3,0.2,0.5,0.5,0.5h1.2c0.3,0,0.5-0.2,0.5-0.5V8.1
			C6.3,7.9,6.1,7.6,5.8,7.6L5.8,7.6z"/>
		<g>
			<path class="st0" d="M14.3,9.2H7.8C7.6,9.2,7.3,9,7.3,8.7c0-0.3,0.2-0.5,0.5-0.5h6.4c0.3,0,0.5,0.2,0.5,0.5
				C14.8,9,14.5,9.2,14.3,9.2L14.3,9.2z"/>
		</g>
		<path class="st0" d="M5.8,14.5H4.7c-0.3,0-0.5,0.2-0.5,0.5v1.2c0,0.3,0.2,0.5,0.5,0.5h1.2c0.3,0,0.5-0.2,0.5-0.5V15
			C6.3,14.7,6.1,14.5,5.8,14.5L5.8,14.5z"/>
		<g>
			<path class="st0" d="M14.3,16H7.8c-0.3,0-0.5-0.2-0.5-0.5c0-0.3,0.2-0.5,0.5-0.5h6.4c0.3,0,0.5,0.2,0.5,0.5
				C14.8,15.8,14.5,16,14.3,16L14.3,16z"/>
		</g>
		<path class="st0" d="M5.8,11.1H4.7c-0.3,0-0.5,0.2-0.5,0.5v1.2c0,0.3,0.2,0.5,0.5,0.5h1.2c0.3,0,0.5-0.2,0.5-0.5v-1.2
			C6.3,11.3,6.1,11.1,5.8,11.1L5.8,11.1z"/>
		<g>
			<path class="st0" d="M14.3,12.6H7.8c-0.3,0-0.5-0.2-0.5-0.5c0-0.3,0.2-0.5,0.5-0.5h6.4c0.3,0,0.5,0.2,0.5,0.5
				C14.8,12.4,14.5,12.6,14.3,12.6L14.3,12.6z"/>
		</g>
	</g>
</g>
</svg>
