<?xml version="1.0" encoding="utf-8"?>
<!-- Generator: Adobe Illustrator 19.1.0, SVG Export Plug-In . SVG Version: 6.00 Build 0)  -->
<svg version="1.1" id="Layer_1" xmlns="http://www.w3.org/2000/svg" xmlns:xlink="http://www.w3.org/1999/xlink" x="0px" y="0px"
	 viewBox="0 0 252.3 98.4" style="enable-background:new 0 0 252.3 98.4;" xml:space="preserve">
<style type="text/css">
	.st0{clip-path:url(#SVGID_2_);fill:#58B6E7;}
	.st1{clip-path:url(#SVGID_2_);fill:#3D5567;}
</style>
<g>
	<defs>
		<rect id="SVGID_1_" width="252.3" height="98.4"/>
	</defs>
	<clipPath id="SVGID_2_">
		<use xlink:href="#SVGID_1_"  style="overflow:visible;"/>
	</clipPath>
	<path class="st0" d="M78,54c-8.8,3.7-20.9,4.2-31.2,0c-10.3-4.2-22.4-3.7-31.2,0L46.8,0L78,54z"/>
	<path class="st1" d="M0,27l15.6,27l15.6-27C22.4,23.4,10.3,22.8,0,27"/>
	<path class="st1" d="M15.6,54l15.6,27l15.6-27C38,50.4,25.9,49.8,15.6,54"/>
	<path class="st0" d="M201.6,75.3c-5.7,0-9.8,4.6-9.8,11.6c0,6.9,4.1,11.5,9.8,11.5c5.7,0,9.8-4.6,9.8-11.5
		C211.4,79.9,207.3,75.3,201.6,75.3 M201.6,97c-4.8,0-8.4-3.9-8.4-10.1c0-6.3,3.6-10.2,8.4-10.2c4.8,0,8.4,3.9,8.4,10.2
		C210,93.1,206.5,97,201.6,97"/>
	<path class="st0" d="M230.8,89c0,4.4-2,8-6.6,8c-4.6,0-6.6-3.2-6.6-7.9l0-13.4h-1.5l0,13.5c0,5.4,2.5,9.3,8,9.3
		c5.5,0,8.1-4.3,8.1-9.3l0-13.5h-1.5L230.8,89z"/>
	<path class="st0" d="M244.9,75.6h-7.8l0,22.4h1.5v-8.4h6.4c3.5,0,7.4-2.2,7.4-6.9C252.3,77.4,248.4,75.6,244.9,75.6 M244.6,88.3
		h-6.1V77h6.1c2.9,0,6.2,1.4,6.2,5.8C250.8,86.7,247.6,88.3,244.6,88.3"/>
	<path class="st0" d="M159.7,88.3v1.3h7.3v5.2c-1.5,1.3-4,2.2-6.4,2.2c-4.9,0-8.8-3.7-8.8-10.1c0-6.4,3.9-10.2,8.8-10.2
		c2.6,0,4.4,1,6.1,2.7l0.9-1c-1.9-1.9-4-3.1-7.1-3.1c-5.6,0-10.2,4.3-10.2,11.6c0,7.2,4.5,11.5,10.2,11.5c2.9,0,6.1-1.2,7.9-2.7
		v-7.4H159.7z"/>
	<path class="st0" d="M174,98v-8.4h6.4h0l5.3,8.4h1.8l-5.6-8.5c3-0.5,5.8-2.7,5.8-6.8c0-5.3-3.8-7.1-7.4-7.1h-7.8l0,22.4H174z
		 M180.1,77c2.9,0,6.2,1.4,6.2,5.8c0,4-3.3,5.6-6.2,5.6H174V77H180.1z"/>
	<path class="st1" d="M89.8,93.2c-3.3,0-6.4-2.4-6.4-6.3c0-3.9,3-6.3,6.1-6.3c2,0,3.8,0.5,5.7,1.9l2.6-4.5c-2.5-1.8-5.4-2.7-9.1-2.7
		c-6.7,0-11.4,5.2-11.4,11.6c0,7,4.8,11.6,12,11.6c3.6,0,6.9-1.6,9-3.6l-2.7-4C94.2,92.2,92.2,93.2,89.8,93.2"/>
	<path class="st1" d="M113.3,75.2c-7.3,0-12,5-12,11.6c0,6.6,4.7,11.6,12,11.6c7.3,0,12-5,12-11.6C125.4,80.2,120.6,75.2,113.3,75.2
		 M113.3,93.2c-3.4,0-6-2.6-6-6.3c0-3.8,2.6-6.3,6-6.3c3.4,0,6,2.6,6,6.3C119.4,90.7,116.8,93.2,113.3,93.2"/>
	<path class="st1" d="M134.4,81.9c0-1,1-1.9,2.7-1.9c2.4,0,4.5,0.8,6.1,1.9l2.2-4.2c-1.6-1.2-4.3-2.5-8.6-2.5
		c-4.6,0-8.1,2.4-8.1,6.7c0,8,11.9,6.1,11.9,9.7c0,1.4-1.3,2.1-2.9,2.1c-2.2,0-5.7-1.4-7.1-2.4L128,95c1.3,1.2,5.4,3.4,9.4,3.4
		c5.4,0,8.9-2.7,8.9-7.1C146.3,83.5,134.4,85.5,134.4,81.9"/>
	<path class="st1" d="M73.3,85.5c0-6.2-4.8-10.3-10.4-10.3h0c-6.7,0-11.4,5.2-11.4,11.6c0,7,4.8,11.6,12,11.6c3.6,0,6.9-1.4,9-3.6
		L69.9,91c-1.6,1.3-3.6,2.3-6,2.3c-2.8,0-6.1-1.9-6.7-5H73C73.2,87.5,73.3,86.7,73.3,85.5 M63,80.4c2.6,0,5,1.6,5,4.3H57.2
		C58.1,81.8,60.5,80.4,63,80.4"/>
</g>
</svg>
