<?xml version="1.0" encoding="utf-8"?>
<!-- Generator: Adobe Illustrator 19.1.0, SVG Export Plug-In . SVG Version: 6.00 Build 0)  -->
<svg version="1.1" id="Layer_3" xmlns="http://www.w3.org/2000/svg" xmlns:xlink="http://www.w3.org/1999/xlink" x="0px" y="0px"
	 viewBox="0 0 23.2 21.1" style="enable-background:new 0 0 23.2 21.1;" xml:space="preserve">
<style type="text/css">
	.st0{fill:#1B1715;}
</style>
<g>
	<g>
		<path class="st0" d="M15.2,21.1c-0.2,0-0.4-0.1-0.6-0.2c-0.4-0.3-0.5-1-0.2-1.4l6.5-9l-6.5-9c-0.3-0.4-0.2-1.1,0.2-1.4
			C15.1-0.1,15.7,0,16,0.4l7,9.6c0.3,0.4,0.3,0.8,0,1.2l-7,9.6C15.8,21,15.5,21.1,15.2,21.1L15.2,21.1z"/>
	</g>
	<g>
		<path class="st0" d="M22.2,11.6H1c-0.6,0-1-0.4-1-1c0-0.6,0.4-1,1-1h21.2c0.6,0,1,0.4,1,1C23.2,11.1,22.7,11.6,22.2,11.6
			L22.2,11.6z"/>
	</g>
</g>
</svg>
