<?xml version="1.0" encoding="utf-8"?>
<!-- Generator: Adobe Illustrator 19.1.0, SVG Export Plug-In . SVG Version: 6.00 Build 0)  -->
<svg version="1.1" id="Layer_1" xmlns="http://www.w3.org/2000/svg" xmlns:xlink="http://www.w3.org/1999/xlink" x="0px" y="0px"
	 viewBox="234.9 109.4 372 257.4" style="enable-background:new 234.9 109.4 372 257.4;" xml:space="preserve">
<path d="M235.1,130.4c12.8,10.6,25,20.7,37,30.8c46.1,38.4,92.3,76.9,138.4,115.3c7.2,6,13.6,6,20.9,0
	c56.8-47.3,113.6-94.6,170.3-142c1.5-1.2,2.9-2.4,4.9-4c0.1,1.9,0.3,3.1,0.3,4.3c0,72,0,144,0,216c0,10.3-5.7,16-16.1,16H251
	c-10.1,0-16.1-5.6-16.1-15.1c0-72.7,0-145.5,0-218.2C234.9,132.8,235,132.1,235.1,130.4z"/>
<path d="M254.6,109.4h332.6L420.9,248L254.6,109.4z"/>
</svg>
