<?xml version="1.0" encoding="utf-8"?>
<!-- Generator: Adobe Illustrator 19.1.0, SVG Export Plug-In . SVG Version: 6.00 Build 0)  -->
<svg version="1.1" id="Layer_3" xmlns="http://www.w3.org/2000/svg" xmlns:xlink="http://www.w3.org/1999/xlink" x="0px" y="0px"
	 viewBox="0 0 22.3 19" style="enable-background:new 0 0 22.3 19;" xml:space="preserve">
<style type="text/css">
	.st0{fill:#1B1715;}
</style>
<g>
	<g>
		<path class="st0" d="M5.3,19c-0.1,0-0.3,0-0.4-0.1c-0.3-0.2-0.6-0.5-0.6-0.9v-2.7H2c-1.1,0-2-0.9-2-2V2c0-1.1,0.9-2,2-2h18.3
			c1.1,0,2,0.9,2,2v11.3c0,1.1-0.9,2-2,2h-9.9l-4.5,3.5C5.7,18.9,5.5,19,5.3,19L5.3,19z M2,2v11.3h3.3c0.6,0,1,0.4,1,1v1.7l3.1-2.5
			c0.2-0.1,0.4-0.2,0.6-0.2h10.3V2H2L2,2z"/>
	</g>
	<g>
		<path class="st0" d="M17,6.5H5.8C5.5,6.5,5.3,6.3,5.3,6s0.2-0.5,0.5-0.5H17c0.3,0,0.5,0.2,0.5,0.5S17.3,6.5,17,6.5L17,6.5z"/>
	</g>
	<g>
		<path class="st0" d="M17,9.6H5.8c-0.3,0-0.5-0.2-0.5-0.5c0-0.3,0.2-0.5,0.5-0.5H17c0.3,0,0.5,0.2,0.5,0.5
			C17.5,9.4,17.3,9.6,17,9.6L17,9.6z"/>
	</g>
</g>
</svg>
