<?xml version="1.0" encoding="utf-8"?>
<!-- Generator: Adobe Illustrator 19.1.0, SVG Export Plug-In . SVG Version: 6.00 Build 0)  -->
<svg version="1.1" id="Layer_3" xmlns="http://www.w3.org/2000/svg" xmlns:xlink="http://www.w3.org/1999/xlink" x="0px" y="0px"
	 viewBox="0 0 35 44" style="enable-background:new 0 0 35 44;" xml:space="preserve">
<g>
	<path d="M0,0v44h22l13-14.2V0H0z M33,29.2L21.1,42H2V2h31V29.2z"/>
</g>
<g>
	<path d="M20.6,28.6v14.8l14-14.8H20.6z M22.6,30.6l10.4,0L22.6,41.3V30.6z"/>
</g>
<g>
	<path d="M11,11c1,0,1.8,0.3,2.2,0.8c0.5,0.5,0.7,1.4,0.7,2.5c0,0.5,0,1-0.1,1.4c-0.1,0.4-0.3,0.8-0.5,1.1c-0.2,0.3-0.5,0.5-0.9,0.7
		c-0.4,0.2-0.8,0.3-1.4,0.3h-0.7V22H8.5V11H11z M10.2,12.6v3.6h0.6c0.5,0,0.9-0.2,1.1-0.5c0.2-0.3,0.3-0.8,0.3-1.4
		c0-0.5-0.1-1-0.3-1.3c-0.2-0.3-0.6-0.5-1.1-0.5H10.2z"/>
	<path d="M17.8,11c0.7,0,1.2,0.1,1.5,0.3c0.4,0.2,0.6,0.6,0.8,1.1c0.1,0.4,0.2,0.9,0.2,1.6c0,0.7,0,1.5,0,2.4c0,0.9,0,1.7,0,2.3
		c0,0.7-0.1,1.2-0.2,1.6c-0.2,0.6-0.5,1-1,1.3c-0.4,0.2-0.9,0.3-1.5,0.3h-2.6V11H17.8z M18.6,13.9c0-0.4-0.1-0.7-0.2-0.9
		c-0.2-0.2-0.4-0.3-0.9-0.3h-0.7v7.8h0.7c0.4,0,0.7-0.1,0.9-0.3s0.2-0.5,0.2-1V13.9z"/>
	<path d="M23.6,12.6v3h2.8v1.6h-2.8V22h-1.7V11h4.9v1.6H23.6z"/>
</g>
</svg>
