<?xml version="1.0" encoding="utf-8"?>
<!-- Generator: Adobe Illustrator 19.1.0, SVG Export Plug-In . SVG Version: 6.00 Build 0)  -->
<svg version="1.1" id="Layer_3" xmlns="http://www.w3.org/2000/svg" xmlns:xlink="http://www.w3.org/1999/xlink" x="0px" y="0px"
	 viewBox="0 0 23.9 23.9" style="enable-background:new 0 0 23.9 23.9;" xml:space="preserve">
<style type="text/css">
	.st0{fill:#1B1715;}
</style>
<g>
	<g>
		<path class="st0" d="M11.9,23.9c-0.6,0-1-0.4-1-1V1c0-0.6,0.4-1,1-1c0.6,0,1,0.4,1,1v21.9C12.9,23.4,12.5,23.9,11.9,23.9
			L11.9,23.9z"/>
	</g>
	<g>
		<path class="st0" d="M22.9,12.9H1c-0.6,0-1-0.4-1-1c0-0.6,0.4-1,1-1h21.9c0.6,0,1,0.4,1,1C23.9,12.5,23.4,12.9,22.9,12.9
			L22.9,12.9z"/>
	</g>
</g>
</svg>
