<?xml version="1.0" encoding="utf-8"?>
<!-- Generator: Adobe Illustrator 19.1.0, SVG Export Plug-In . SVG Version: 6.00 Build 0)  -->
<svg version="1.1" id="Слой_1" xmlns="http://www.w3.org/2000/svg" xmlns:xlink="http://www.w3.org/1999/xlink" x="0px" y="0px"
	 viewBox="-295 386 21.1 21.1" style="enable-background:new -295 386 21.1 21.1;" xml:space="preserve">
<style type="text/css">
	.st0{fill:#313131;}
</style>
<path id="Shape_1_copy" class="st0" d="M-291.5,393c1.1,0,2.1,0.5,2.8,1.3l7.9-3.9c-0.5-1.9,0.6-3.8,2.5-4.3s3.8,0.6,4.3,2.5
	c0.5,1.9-0.6,3.8-2.5,4.3c-1.4,0.4-2.8-0.1-3.7-1.2l-7.9,3.9c0.2,0.6,0.2,1.3,0,1.9l7.9,3.9c1.2-1.5,3.4-1.8,5-0.6
	c1.5,1.2,1.8,3.4,0.6,5c-1.2,1.5-3.4,1.8-5,0.6c-1.1-0.9-1.6-2.3-1.3-3.7l-7.9-3.9c-1.2,1.5-3.4,1.7-4.9,0.5
	c-1.5-1.2-1.7-3.4-0.5-4.9C-293.5,393.5-292.5,393-291.5,393z M-277.5,391.6c1.2,0,2.1-0.9,2.1-2.1s-0.9-2.1-2.1-2.1
	s-2.1,0.9-2.1,2.1S-278.7,391.6-277.5,391.6L-277.5,391.6z M-277.5,405.6c1.2,0,2.1-0.9,2.1-2.1s-0.9-2.1-2.1-2.1s-2.1,0.9-2.1,2.1
	S-278.7,405.6-277.5,405.6C-277.5,405.6-277.5,405.6-277.5,405.6z M-291.5,398.6c1.2,0,2.1-0.9,2.1-2.1s-0.9-2.1-2.1-2.1
	s-2.1,0.9-2.1,2.1S-292.7,398.6-291.5,398.6C-291.5,398.6-291.5,398.6-291.5,398.6z"/>
</svg>
