<?xml version="1.0" encoding="utf-8"?>
<!-- Generator: Adobe Illustrator 19.1.0, SVG Export Plug-In . SVG Version: 6.00 Build 0)  -->
<svg version="1.1" id="_x31_" xmlns="http://www.w3.org/2000/svg" xmlns:xlink="http://www.w3.org/1999/xlink" x="0px" y="0px"
	 viewBox="0 0 73 42.7" style="enable-background:new 0 0 73 42.7;" xml:space="preserve">
<style type="text/css">
	.st0{fill:#FFFFFF;}
</style>
<path class="st0" d="M72.4,3.3c-0.9-0.8-4.4-0.7-7.9-0.7c-3.5,0-7.1,0-7.9,0.4c-0.8,0.3-2.5,4.4-4.7,8.6c-2.5,4.8-5.6,9.3-7.5,9.3
	c-2.5,0-1.9-7.9-1.8-13.6c0.1-3.8-0.5-5-1.1-5.4c-1.3-0.9-5-1.8-5-1.8S25.6-0.8,24.1,4c2.1,0.3,5.7-0.4,4.3,14.3
	c-0.1,0.7-1.7,6.8-6.8-1.4c-1.3-2-6.2-14.3-7.9-14.3C8,2.4,2.4,2.2,0.4,3.3c-1.8,1,2.5,9.5,9.7,20.8C16,33.3,22.2,40.5,33,42.3
	c2,0.2,7.3,0.4,9-0.4c1.1-0.6-0.2-8.6,3.6-9.3c1.7-0.3,8.3,8.3,10.8,9.3c1.5,0.6,4.8,0.8,8.2,0.7c3.7-0.1,7.8,0.3,8.2-2.2
	c0.9-5.5-11.1-12.7-11.5-16.1c-0.3-2.4,4.4-7,6.8-10.4C71.1,9.9,74.3,4.8,72.4,3.3z"/>
</svg>
