<?xml version="1.0" encoding="utf-8"?>
<!-- Generator: Adobe Illustrator 19.1.0, SVG Export Plug-In . SVG Version: 6.00 Build 0)  -->
<svg version="1.1" id="Слой_1" xmlns="http://www.w3.org/2000/svg" xmlns:xlink="http://www.w3.org/1999/xlink" x="0px" y="0px"
	 viewBox="-295.8 387 18.8 18.3" style="enable-background:new -295.8 387 18.8 18.3;" xml:space="preserve">
<style type="text/css">
	.st0{fill:#FFFFFF;}
</style>
<path id="YouTube" class="st0" d="M-292.4,396.5h12.1c1.9,0,3.4,1.5,3.4,3.4c0,0,0,0,0,0v2c0,1.9-1.5,3.4-3.4,3.4c0,0,0,0,0,0h-12.1
	c-1.9,0-3.4-1.5-3.4-3.4c0,0,0,0,0,0v-2C-295.8,398-294.3,396.5-292.4,396.5z M-291.6,387c-0.3,1.5-0.5,2.6-0.6,3.5
	c0-0.5-0.2-1.9-0.5-3.5h-1.9l1.5,5.2v2.9h2v-2.9l1.5-5.2L-291.6,387z M-285.2,389.8c-0.2-0.5-0.6-1-1.1-1.2c-0.3-0.1-0.6-0.2-1-0.2
	c-0.5,0-1.1,0.1-1.6,0.3c-0.3,0.2-0.6,0.5-0.7,0.8c-0.1,0.5-0.2,0.9-0.2,1.4v1.7c0,0.4,0,0.8,0.1,1.3c0.1,0.3,0.2,0.5,0.4,0.7
	c0.2,0.2,0.4,0.4,0.7,0.4c0.4,0.1,0.9,0.2,1.4,0.1c0.3,0,0.6-0.1,0.9-0.2c0.3-0.1,0.5-0.3,0.7-0.5c0.2-0.2,0.3-0.5,0.4-0.8
	c0.1-0.4,0.1-0.9,0.1-1.3v-1.6C-285.1,390.5-285.1,390.1-285.2,389.8z M-287.1,393.1c0,0.2,0,0.4-0.1,0.6c-0.1,0.1-0.2,0.1-0.3,0.1
	c-0.1,0-0.2,0-0.2-0.1c-0.1-0.2-0.1-0.4-0.1-0.6v-2.6c0-0.2,0-0.4,0.1-0.6c0-0.1,0.1-0.1,0.2-0.1c0.1,0,0.2,0,0.3,0.1
	c0,0.2,0.1,0.4,0.1,0.6C-287.1,390.4-287.1,393.1-287.1,393.1z M-281.7,388.4v4.6c0,0.3,0,0.6,0,1c0,0.1-0.2,0.2-0.3,0.1
	c-0.1,0-0.3,0-0.3-0.1c0-0.3-0.1-0.6,0-0.9v-4.6h-2v4.6c0,0.6,0,0.9,0,1.1c0,0.2,0.1,0.4,0.2,0.5c0.1,0.2,0.3,0.3,0.4,0.4
	c0.3,0.1,0.5,0.1,0.8,0.1c0.2,0,0.5,0,0.7-0.1c0.2-0.1,0.4-0.3,0.5-0.5l0,0.5h2v-6.7H-281.7z M-293.7,397.9v1.3h0.7v4.7h1.3v-4.7
	h0.6v-1.3L-293.7,397.9L-293.7,397.9z M-288.4,399.2v3.1c0,0.2,0,0.5,0,0.7c-0.1,0.1-0.2,0.1-0.3,0.1c-0.1,0-0.2,0-0.3-0.1
	c0-0.2,0-0.4,0-0.7v-3.2h-1.3v3.2c0,0.4,0,0.7,0,0.8c0,0.1,0.1,0.3,0.1,0.4c0.1,0.1,0.2,0.2,0.3,0.3c0.2,0.1,0.4,0.1,0.5,0.1
	c0.2,0,0.4,0,0.5-0.1c0.2-0.1,0.3-0.2,0.4-0.4l0,0.4h1.5v-4.7L-288.4,399.2L-288.4,399.2z M-286.4,397.9v6h1.2l0.1-0.4
	c0.2,0.1,0.4,0.3,0.6,0.3c0.1,0.1,0.3,0.1,0.5,0.1c0.2,0,0.4-0.1,0.6-0.2c0.2-0.1,0.3-0.3,0.3-0.4c0.1-0.3,0.1-0.5,0.1-0.8v-2.3
	c0-0.1,0-0.2,0-0.4c0-0.1-0.1-0.2-0.1-0.3c-0.1-0.1-0.2-0.2-0.3-0.3c-0.2-0.1-0.3-0.1-0.5-0.1c-0.2,0-0.3,0-0.5,0.1
	c-0.2,0.1-0.4,0.2-0.6,0.3v-1.7L-286.4,397.9L-286.4,397.9z M-284.4,402.5c0,0.2,0,0.4,0,0.5c-0.1,0.1-0.2,0.1-0.3,0.1
	c-0.1,0-0.1,0-0.2-0.1c0-0.2-0.1-0.3,0-0.5v-2.2c0-0.3,0-0.1,0-0.2c0-0.1,0.1-0.1,0.2-0.1c0.1,0,0.3,0,0.4,0.1c0,0.1,0-0.1,0,0.1
	L-284.4,402.5L-284.4,402.5z M-279.1,400.9c0-0.3,0-0.6-0.2-0.9c-0.1-0.3-0.3-0.5-0.6-0.6c-0.3-0.2-0.7-0.2-1-0.2
	c-0.3,0-0.6,0.1-0.8,0.2c-0.3,0.1-0.5,0.3-0.6,0.6c-0.1,0.2-0.2,0.4-0.2,0.7v1.6c0,0.3,0,0.5,0.1,0.8c0.1,0.2,0.1,0.4,0.3,0.5
	c0.2,0.2,0.4,0.3,0.6,0.4c0.2,0.1,0.5,0.1,0.7,0.1c0.3,0,0.5,0,0.8-0.1c0.2-0.1,0.4-0.2,0.5-0.4c0.1-0.2,0.2-0.3,0.3-0.5
	c0-0.2,0.1-0.5,0.1-0.7v-0.4h-1.4v0.6c0,0.2,0,0.3-0.1,0.5c0,0.1-0.1,0.1-0.2,0.1c-0.1,0-0.1,0-0.2-0.1c0-0.1-0.1-0.3-0.1-0.4v-1.4
	h1.9L-279.1,400.9L-279.1,400.9z M-281,400.6v-0.4c0-0.3,0-0.1,0-0.2c0-0.1,0.1-0.1,0.2-0.1c0.1,0,0.1,0,0.2,0.1c0,0.1,0-0.1,0,0.1
	v0.4L-281,400.6L-281,400.6z"/>
</svg>
